<?xml version="1.0" encoding="UTF-8"?>
<svg id="Layer_2" data-name="Layer 2" xmlns="http://www.w3.org/2000/svg" viewBox="0 0 56.8 71.08">
  <defs>
    <style>
      .cls-1, .cls-2 {
        fill: #fff;
      }

      .cls-2 {
        fill-rule: evenodd;
      }

      .cls-3 {
        fill: #88a3a8;
      }
    </style>
  </defs>
  <g id="Layer_1-2" data-name="Layer 1">
    <g>
      <rect class="cls-3" x="0" width="56.8" height="71.08"/>
      <path class="cls-1" d="m53.91,56.53H2.81V3.28h51.1v53.25Zm-50.75-.35h50.39V3.64H3.17v52.54Z"/>
      <g>
        <path class="cls-2" d="m28.21,33.05l-3.17,3.04c.51,1.65,1.57,5.58,1.25,8.72-1.41-3.32-2.55-5.28-3.49-6.5l-.92.91s1.24,3.01,1.27,5.39c.03,2.38.98,6.47,3.23,6.96-1.47-2.19-2.25-4.44-.98-4.61.72-.09,1.92-.08,2.81-.05.89-.03,2.08-.04,2.81.05,1.27.16.49,2.42-.98,4.61,2.25-.49,3.2-4.57,3.23-6.96.03-2.39,1.27-5.39,1.27-5.39l-.92-.92c-.93,1.22-2.07,3.18-3.49,6.5-.33-3.14.74-7.07,1.25-8.72l-3.17-3.04h0Z"/>
        <path class="cls-1" d="m22.35,30.7c-1.07-1.7-2.95-4.09-5.72-5.45-2.16,1.63-6.01,2.74-9.67-.2l.79,9.61s2.41-2.65,6.79-1.86c-2.13-2.03-5.1-2.48-5.1-2.48,0,0,5.33-2.24,9.07,4.11l3.83-3.73Z"/>
        <path class="cls-1" d="m37.91,34.41c3.74-6.33,9.06-4.1,9.06-4.1,0,0-2.97.46-5.1,2.48,4.38-.78,6.79,1.86,6.79,1.86l.79-9.61c-3.66,2.94-7.51,1.83-9.67.2-2.76,1.36-4.63,3.73-5.71,5.43h0s3.83,3.73,3.83,3.73Z"/>
        <g>
          <path class="cls-1" d="m44.02,53.67l-2.75-2.67.14-.13c.4-.36,1.33-1.28,1.33-2.04,0-.86-.7-1.55-1.55-1.55h0c-.41,0-.8.16-1.1.46-.06.06-.12.13-.18.21h0s-.8.96-.8.96l-2.14-2.08,3.16-3.67,7.05,6.86-3.17,3.67Zm-2.23-2.66l2.21,2.15,2.7-3.13-6.54-6.36-2.7,3.13,1.63,1.58.55-.65c.07-.1.14-.18.21-.25.36-.36.84-.56,1.35-.56h0c1.05,0,1.91.86,1.91,1.91,0,.8-.77,1.67-1.31,2.18Z"/>
          <path class="cls-1" d="m23.8,24.66l-.12-.12c-1.88-1.83-3.06-2.98-3.24-3.16-3.06-3.07-6.03-4.27-7.92-3.21-.94.52-1.46,1.61-1.38,2.92.07,1.31.72,2.41,1.66,2.81l.44.19-.46.15c-1.68.53-2.99.46-3.9-.23-1.35-1.02-1.3-2.99-1.3-3.08V6.4s.18,0,.18,0c0,0,9.21,0,14.51,0h0c1.36,0,2.4.44,3.1,1.32,1.63,2.04.83,5.67.8,5.82l-.35-.06c.12-1.14-.75-2.56-1.93-3.16-1.16-.59-2.45-.33-3.62.73-.65.58-.99,1.31-1.02,2.15-.09,2.43,2.39,5.11,2.48,5.21l4.26,4.14-2.18,2.1ZM7.93,6.76v14.17s-.05,1.88,1.16,2.79c.74.56,1.8.66,3.17.3-.85-.56-1.41-1.65-1.48-2.9-.08-1.44.51-2.66,1.57-3.25,2.04-1.14,5.17.08,8.35,3.26.18.18,1.31,1.28,3.12,3.04l1.67-1.6-4.01-3.9s-.68-.72-1.32-1.73c-.88-1.38-1.3-2.63-1.26-3.73.04-.94.42-1.75,1.14-2.4,1.74-1.57,3.26-1.16,4.02-.78.89.45,1.62,1.33,1.95,2.24.1-1.23.07-3.11-.9-4.32-.63-.79-1.58-1.19-2.82-1.19h0c-4.86,0-13.03,0-14.33,0Z"/>
          <path class="cls-1" d="m49.88,49.87l-.13-.13c-.11-.11-11.1-10.7-19.57-18.9l-.13-.13.12-.13,2.04-1.96,2.1,2.05h0s3.59,3.51,3.59,3.51l.14.12,6.43,6.25,1.13-1.31,4.45,4.33-1.13,1.31,2.88,2.8-1.92,2.2Zm-19.34-19.16c7.95,7.69,18.04,17.42,19.31,18.65l1.45-1.66-2.88-2.8,1.13-1.31-3.94-3.84-1.13,1.31-6.54-6.35h0s-.17-.14-.17-.14l-3.94-3.83h0s-1.65-1.62-1.65-1.62l-1.66,1.6Z"/>
          <path class="cls-1" d="m10.63,9.18s0,0,7.61,0c-1.24,1.21-.7,3.62-.7,3.62-1.67-1.45-4.12-1.42-4.12-1.42,0,0-.06,1.8,1.45,4.23-2.01-1.06-4.25.38-4.25.38v-6.81Z"/>
        </g>
        <g>
          <path class="cls-1" d="m13.07,53.41l-3.17-3.67,7.05-6.86,3.17,3.67-2.14,2.08-.81-.96c-.05-.07-.11-.14-.17-.21-.29-.29-.68-.46-1.1-.46h0c-.42,0-.81.16-1.1.46-.29.29-.45.68-.45,1.1,0,.77.93,1.69,1.33,2.04l.14.13-2.75,2.67Zm-2.68-3.65l2.7,3.13,2.21-2.15c-.54-.51-1.31-1.37-1.31-2.18,0-.51.2-.99.56-1.35.36-.36.84-.56,1.35-.56h0c.51,0,.99.2,1.35.56.08.08.15.16.21.25l.55.65,1.63-1.58-2.7-3.13-6.54,6.36Z"/>
          <path class="cls-1" d="m6.54,49.87l-1.92-2.2,2.88-2.8-1.13-1.31,4.45-4.33,1.13,1.31,6.43-6.25,3.83-3.73,12.49-12.15s2.57-2.75,2.48-5.21c-.03-.84-.38-1.56-1.02-2.15-1.17-1.06-2.46-1.32-3.62-.73-1.19.6-2.05,2.02-1.93,3.16l-.35.06c-.03-.15-.83-3.78.8-5.82.7-.88,1.74-1.32,3.1-1.32h0c5.29,0,14.51,0,14.51,0h.18s0,14.52,0,14.52c0,.08.05,2.05-1.3,3.07-.91.69-2.22.77-3.9.23l-.46-.15.44-.19c.94-.4,1.59-1.5,1.66-2.81.07-1.3-.45-2.39-1.38-2.92-1.9-1.06-4.86.14-7.92,3.21-2.68,2.68-29.05,28.11-29.31,28.36l-.13.13Zm-1.43-2.18l1.45,1.66c2.05-1.98,26.59-25.65,29.17-28.23,3.18-3.19,6.3-4.41,8.35-3.26,1.06.59,1.64,1.81,1.57,3.25-.07,1.26-.64,2.35-1.48,2.9,1.36.36,2.43.26,3.17-.3,1.2-.91,1.16-2.77,1.16-2.78V6.76c-1.3,0-9.47,0-14.33,0h0c-1.24,0-2.19.4-2.82,1.19-.97,1.21-1,3.09-.9,4.31.33-.92,1.06-1.79,1.95-2.24.76-.38,2.28-.79,4.02.78.72.65,1.1,1.46,1.14,2.4.04,1.1-.38,2.36-1.26,3.73-.65,1.02-1.3,1.71-1.32,1.73l-12.5,12.15-3.83,3.73-6.7,6.51-1.13-1.31-3.94,3.84,1.13,1.31-2.88,2.8Z"/>
          <path class="cls-1" d="m46.97,9.18s0,0-7.61,0c1.24,1.21.7,3.62.7,3.62,1.67-1.45,4.12-1.42,4.12-1.42,0,0,.06,1.8-1.45,4.23,2.01-1.06,4.25.38,4.25.38v-6.81Z"/>
        </g>
      </g>
      <g>
        <g>
          <path class="cls-1" d="m8.76,65.7c0,.08-.04.16-.11.23-.45.45-1.17.68-2.15.68-.83,0-1.55-.28-2.15-.84-.6-.56-.91-1.26-.91-2.09s.31-1.55.92-2.11c.61-.56,1.35-.83,2.2-.83.19,0,.43.03.72.08.29.05.56.14.83.26.26.12.4.27.4.43v.76c0,.09-.03.17-.09.23-.06.06-.14.09-.23.09-.22,0-.32-.14-.32-.43,0,0,0-.03,0-.06,0-.04,0-.07,0-.11-.37-.43-.85-.65-1.46-.65-.37,0-.69.13-.98.38-.29.25-.5.55-.64.9-.14.35-.21.7-.21,1.06,0,.59.18,1.13.53,1.61.35.48.82.72,1.39.72.77,0,1.34-.17,1.72-.51.06-.07.13-.11.23-.11.08,0,.15.03.21.09.06.06.09.13.09.22Z"/>
          <path class="cls-1" d="m15.37,66.19c0,.09-.03.16-.09.21-.06.05-.14.08-.22.08-.72,0-1.38-.23-1.98-.7-.6-.47-1.03-1.06-1.3-1.76h-.64v1.76h.62c.1,0,.18.03.23.09.06.06.09.13.09.23,0,.09-.03.16-.1.22-.06.05-.14.08-.23.08h-2.15c-.08,0-.16-.03-.22-.08-.07-.05-.1-.12-.1-.21,0-.1.03-.18.09-.23s.14-.09.24-.09h.41v-4.29h-.41c-.09,0-.17-.03-.23-.09s-.09-.13-.09-.22c0-.09.03-.17.09-.22.06-.06.14-.08.23-.08h2.39c.28,0,.55.02.8.07.25.05.5.12.74.23.24.11.44.27.58.49.14.22.21.48.21.78,0,.35-.12.66-.37.94-.25.28-.54.46-.9.57.18.51.44.96.79,1.34.35.38.75.57,1.2.57.1,0,.17.03.23.09.06.06.09.14.09.23Zm-2.22-3.74c0-.28-.12-.5-.36-.68-.24-.18-.51-.27-.79-.27h-.86v1.91h.86c.34,0,.62-.08.83-.24.22-.16.32-.4.32-.72Z"/>
          <path class="cls-1" d="m21.45,63.59c0,.55-.15,1.05-.44,1.5-.29.45-.67.8-1.15,1.04-.47.24-.98.36-1.52.36s-1.05-.12-1.52-.36c-.47-.24-.85-.59-1.15-1.04-.29-.45-.44-.95-.44-1.5s.15-1.04.44-1.49c.29-.45.67-.8,1.15-1.05.47-.25.98-.37,1.52-.37.84,0,1.56.28,2.18.83.62.56.92,1.25.92,2.07Zm-3.34-2.27c-.56,0-.98.2-1.28.61-.3.41-.45.9-.45,1.48s.22,1.16.66,1.67c.44.52.95.77,1.54.77.53,0,.95-.2,1.26-.59.31-.39.47-.86.47-1.41,0-.62-.21-1.2-.63-1.73-.42-.53-.94-.8-1.56-.8Z"/>
          <path class="cls-1" d="m39.23,61.19c0,.09-.03.17-.1.22-.07.06-.14.09-.23.09h-.66v4.59c0,.11-.03.21-.1.28-.06.08-.15.11-.27.11s-.24-.06-.37-.19l-4.08-4.21v3.7h.74c.22,0,.33.11.33.32,0,.09-.03.16-.1.22-.07.05-.14.08-.23.08h-2.03c-.09,0-.17-.03-.23-.08-.06-.05-.09-.12-.09-.21,0-.22.11-.32.32-.32h.66v-4.29h-.51c-.09,0-.17-.03-.23-.09-.06-.06-.1-.13-.1-.22,0-.1.03-.17.09-.23.06-.05.14-.08.24-.08h2.54c.1,0,.18.03.23.08.06.05.09.13.09.23,0,.09-.03.17-.1.22-.06.06-.14.09-.23.09h-.41l3.2,3.31v-3.31h-.89c-.09,0-.16-.03-.23-.09-.06-.06-.1-.13-.1-.22,0-.1.03-.17.09-.23.06-.05.14-.08.24-.08h2.19c.1,0,.18.03.24.08.06.05.09.13.09.23Z"/>
          <path class="cls-1" d="m45.96,63.59c0,.55-.15,1.05-.44,1.5-.29.45-.67.8-1.15,1.04-.47.24-.98.36-1.52.36s-1.05-.12-1.52-.36c-.47-.24-.85-.59-1.15-1.04-.29-.45-.44-.95-.44-1.5s.15-1.04.44-1.49c.29-.45.67-.8,1.15-1.05.47-.25.98-.37,1.52-.37.84,0,1.56.28,2.18.83.62.56.92,1.25.92,2.07Zm-3.34-2.27c-.56,0-.98.2-1.28.61-.3.41-.45.9-.45,1.48s.22,1.16.66,1.67c.44.52.95.77,1.54.77.53,0,.95-.2,1.26-.59.31-.39.47-.86.47-1.41,0-.62-.21-1.2-.63-1.73s-.94-.8-1.56-.8Z"/>
          <path class="cls-1" d="m53.14,66.09c0,.09-.03.16-.1.22-.06.05-.14.08-.23.08h-2.67c-.09,0-.16-.03-.23-.08-.07-.05-.1-.12-.1-.21,0-.1.03-.18.09-.24.06-.06.14-.09.24-.09h.36l-1.09-1.47c-.56.64-1,1.13-1.3,1.47h.87c.23,0,.34.11.34.32,0,.09-.04.16-.11.22-.07.05-.15.08-.24.08h-2.51c-.09,0-.16-.03-.23-.08-.07-.05-.1-.12-.1-.21,0-.1.03-.18.09-.24.06-.06.14-.09.24-.09h.8c.18-.19.46-.51.85-.96.39-.45.7-.79.92-1.03l-1.7-2.29h-.63c-.1,0-.18-.03-.24-.09-.06-.06-.1-.13-.1-.23,0-.09.04-.16.11-.22.07-.05.15-.08.24-.08h2.49c.09,0,.16.03.23.08.07.05.1.12.1.21,0,.1-.03.18-.09.24-.06.06-.14.09-.24.09h-.4c.11.14.28.36.5.66.23.3.41.54.55.73l1.24-1.39h-.57c-.1,0-.18-.03-.24-.09-.06-.06-.09-.14-.09-.23s.03-.16.1-.22c.06-.05.14-.08.23-.08h2.1c.09,0,.16.03.24.08.07.05.11.12.11.21,0,.1-.03.18-.09.24-.06.06-.14.09-.25.09h-.7c-.84.96-1.4,1.59-1.68,1.9l1.79,2.38h.79c.1,0,.18.03.24.09s.09.13.09.23Z"/>
        </g>
        <path class="cls-1" d="m26.32,61.14c0,.15-.1.23-.29.23l.51,1.07.52-1.07s-.04,0-.08,0c-.04,0-.06,0-.09,0-.23,0-.22-.08-.22-.23m4.75,0c0,.07-.02.13-.07.17s-.11.06-.18.06h-.75l-2.4,4.94c-.04.09-.17.14-.37.14h-.06c-.22,0-.34-.05-.38-.14l-1.01-2.13-1.03,2.13c-.04.09-.17.14-.38.14-.25,0-.39-.05-.44-.14l-2.35-4.94h-.62c-.06,0,0-.02-.06-.06-.05-.04-.08-.1-.08-.16,0-.07.02-.12.07-.16.05-.04-.01-.06.06-.06h2.26c.16,0,.24.07.24.22,0,.06-.02.12-.07.16-.05.04.01.06-.05.06h-.58l1.93,4.05.85-1.77-1.09-2.28s-.06,0-.13,0c-.07,0-.12,0-.17,0-.26,0-.36-.08-.36-.24m4.35,0c0,.06-.02.12-.07.16-.05.04-.11.06-.17.06h-.76l-.77,1.6,1.17,2.45,1.96-4.05h-.85c-.07,0-.13-.02-.18-.06-.05-.04-.07-.1-.07-.16m.91.36h-.57c-.09,0-.17-.03-.24-.09-.07-.06-.1-.13-.1-.22,0-.1.03-.17.1-.23.07-.05.15-.08.24-.08h1.93c.1,0,.18.03.24.08.06.05.1.13.1.23,0,.1-.03.17-.1.23-.06.05-.15.08-.24.08h-1.36Zm-3.01,0h.18c-.09,0-.17-.03-.24-.09-.07-.06-.1-.13-.1-.22,0-.1.03-.17.1-.23.07-.05.15-.08.24-.08h1.32c.1,0,.18.03.24.08.06.05.1.13.1.23,0,.1-.03.17-.1.23-.06.05-.15.08-.24.08h-1.51Zm-2.09,0h-.1c-.09,0-.17-.03-.24-.09-.07-.06-.1-.13-.1-.22,0-.1.03-.17.1-.23.07-.05.15-.08.24-.08h1.46c.1,0,.18.03.24.08.06.05.1.13.1.23,0,.1-.03.17-.1.23-.06.05-.15.08-.24.08h-1.36Zm-2.33,0h-.83c-.09,0-.17-.03-.24-.09-.07-.06-.1-.13-.1-.22,0-.1.03-.17.1-.23.07-.05.15-.08.24-.08h2.19c.1,0,.18.03.24.08.06.05.1.13.1.23,0,.1-.03.17-.1.23-.06.05-.15.08-.24.08h-1.36Z"/>
      </g>
    </g>
  </g>
</svg>