<?xml version="1.0" encoding="UTF-8"?>
<svg id="Layer_1" xmlns="http://www.w3.org/2000/svg" version="1.1" viewBox="0 0 841.89 152.67">
  <!-- Generator: Adobe Illustrator 29.4.0, SVG Export Plug-In . SVG Version: 2.1.0 Build 152)  -->
  <defs>
    <style>
      .st0 {
        fill: #2e302e;
      }

      .st1 {
        fill: #d13217;
      }
    </style>
  </defs>
  <path class="st0" d="M110.26,9.28v18.05l1.06,1.06h25.84l.02,7.3c-.14.47-1.6,1.19-1.79,1.19h-25.13v47.08c0,1.05,2.4,6.99,3.23,8.1,5.6,7.51,15.86,4.06,23.72,5.3l.66,8.19h-17.35c-2.65,0-10.35-4.03-12.38-6.03-3.44-3.38-7.09-13.05-7.09-17.69v-44.96h-15.22c-.2,0-1.65-.73-1.79-1.19l.02-7.3h11.68c.22,0,3.82-1.25,4.18-1.49,3.32-2.17,3.17-13.81,3.25-17.63h7.08Z"/>
  <path class="st0" d="M435.23,9.28v18.05l1.06,1.06h25.84c-.37,2.73,1.01,6.44-1.06,8.5h-25.84v45.67c0,1.67,1.59,6.41,2.53,8.09,5.95,10.68,23.89,4.35,25.7,7.23l.1,7.69h-18.05c-8.47,0-18.76-11.92-18.76-20.18v-48.5h-15.93c-2.08-2.06-.7-5.76-1.06-8.5h11.68c.21,0,3.49-1.47,3.89-1.77,3.14-2.4,2.68-13.43,2.83-17.35h7.08Z"/>
  <path class="st0" d="M161.23,28.39l6.64-.04c.31.09,1.15,2.33,1.15,2.52v13.81c1.37.29,1.36-.42,1.94-1.25,4.55-6.6,11.18-15.03,20.37-15.03h13.1l-.66,8.19c-13.54-.47-25.55,2.08-31.03,15.7-1.28,3.19-3,10.73-3,13.99v39.29h-8.5V28.39Z"/>
  <path class="st0" d="M506.04,92.11l24.87-63.62,9.04-.03,23.45,62.44,1.75.5,21.93-62.33,9.57-.68-27.71,77.07h-9.01c-7.74-18.47-13.8-38.19-21.71-56.52-.58-1.35-1.95-5.66-3.51-5.69l-23.81,62.23-8.09.14-28.65-77.22c2.68.43,8.2-1.13,9.85,1.12l22.02,62.59Z"/>
  <path class="st1" d="M60.36,37.67c-1.22-17.31-17.71-22.29-32.81-20.16-19.9,2.8-25.35,23.41-5.73,32.09,15.16,6.7,46.09,6.83,48.08,28.88C73.46,117.92-.89,115.77,0,77.49l7.74.28c1.95,20.2,26.01,25.43,42.27,19.28,14.32-5.42,15.98-21.53,2.36-29.28C36.58,58.77,1.32,60.62,1.24,34.85,1.13-.23,68.85,1.02,68.36,37.12l-8,.55Z"/>
  <path class="st0" d="M396.29,69.46h-70.09c.62,28.31,35.87,38.98,54.5,18.75,1.55-1.68,2.24-4.81,4.63-5.28s5.63.29,8.13,0c-7.01,20.55-31.43,28.42-51.16,21.77-34.51-11.62-33.71-64.84,1.03-75.8,28.11-8.87,55,10.93,52.96,40.57ZM387.8,62.38c-3.14-35.69-59.49-36.15-61.6,0h61.6Z"/>
  <path class="st0" d="M300,69.46h-69.74c-1.94,0,.12,7.24.56,8.65,7.86,25.22,44.56,27.57,56.44,4.8h9.91c-11.51,30.37-58.07,32.62-72.59,3.55-11.36-22.74-.81-52.03,24.7-58.16,28.57-6.87,51.09,12.21,50.71,41.16ZM290.8,62.38c-1.09-31.58-49.33-36.8-59.82-8.49-.49,1.33-2.83,8.49-.72,8.49h60.53Z"/>
  <g>
    <path class="st0" d="M841.86,69.46h-69.74c-1.48,1.71.05,6.26.74,8.46,8.02,25.57,44,27.84,56.25,4.99h9.91c-14.53,36.84-73.3,30.19-76.46-10.98-4.56-59.52,81.22-59.76,79.29-2.47ZM772.12,62.38h60.18c.67-.54.82-.59.79-1.46-.06-1.76-1.86-6.85-2.67-8.7-10.34-23.92-50.56-21.89-57.99,3.4-.37,1.26-1.85,6.39-.32,6.76Z"/>
    <path class="st0" d="M743.44,50.34l-9.17-.03c-.43-17.2-29.66-18.28-39.33-9.89-5.3,4.59-4.09,13.07,1.42,17.01,11.43,8.17,32.31,4.48,43.57,16.62,7.03,7.58,6.16,19.35-1.81,25.84-16.44,13.4-56.62,8.68-56.68-17.73l8.13-.59c1.63,17,24.49,20.06,37.37,14.93,11.47-4.57,12.3-16.2,1.41-22.21-12.87-7.1-38.52-3.82-44.5-20.64-3.92-11.02,2.55-20.38,12.88-24.18,17.91-6.58,44.42-1.51,46.71,20.87Z"/>
  </g>
  <path class="st1" d="M631.72,148.8c-.17,1.01-1.35,1.18-2.15,1.43-3.74,1.15-5.84.65-4.66-3.75-2.4-.2-5.46-1.92-5.73-4.52s3.09-2.11,4.7-2.88c2.56-8.12,5.96-16.04,8.3-24.23.6-2.11,1.51-4.76,1.69-6.91.47-5.57-3.44-13.32-5.11-18.89-1.56-5.22-3.28-10.53-3.13-16.05h-2.87s1.07-15.05,1.07-15.05c-.74.33-1.04,1.34-1.38,2.02-1.03,2.09-2.55,7-3.66,8.53-.44.61-1.18.44-1.44.79-.5.67-.19,2.55-.74,3.83-.42.98-1.68,2.26-2.81,2.39-.47-.51,1.43-2.48.36-2.86-1.3,1.14-.81,4.41-1.24,5.03-.92,1.34-3.09-.96-3.35-2.06-.89-3.86,1.52-4.76,2.61-7.63,2.01-5.28,4.69-13.99,5.96-19.49,1.43-6.2,1.34-13.03,2.52-19.34.43-2.29.25-3.85,2.43-5.09,1.69-.96,10.69-3.81,11.09-5.06.14-1.39-.96-2.66-1.3-3.98-.41-1.61-.96-5.09-1.15-6.73-.34-2.92-.23-5.5,2.59-7.04,3.8-2.07,10.68-1.82,12.33,2.87.73,2.08.44,6.56.02,8.77-.53,2.82-3.77,3.32.62,6.36,2.47,1.71,10.68,1.9,11.67,3.11,1.06,1.29,2.96,9.58,3.53,11.78,3.41,13.18,4.11,24.12,4.32,37.59.02,1.12.73,2.49.73,3.61-.02,3.1-1.31,5.14-4.11,6.28-.47.19-.31.57-.9-.2.37-2.57,2.2-4.2,1.07-6.98-1.16.56-.82,2.51-2.5,2.15-.1-1.97-.1-3.57.72-5.37l-1.1-.19-1.87-16.01-4.19-10.68c-1.33,9.54.73,19.12,1.07,28.67l-2.19.22c-2.17,6.3-5.67,12.33-7.85,18.59-1.77,5.08-2.46,11.31-1.62,16.69s5.59,11.56,6.26,16.68c.3,2.34.04,5.25.39,7.68l-1.44.18c.38,1.39,2.37,5.72.84,6.66-.66.4-1.85.25-2.77.73-1.07.56-1.75,2.13-3.08,2.65-1.26.49-8.31,1.08-9.26.47-1.54-3.27,1.11-3.04,3.05-4.17,2.39-1.41,4.37-2.79,5.14-5.62.15-1.1-1.28-.07-1.98-.89-.64-.76-1.65-4.67-2.29-5.94-.19-.38.19-.67-.75-.51l-5.39,15.06-1.07-.36c-.27,2.35.37,5.46,0,7.71Z"/>
  <g>
    <path d="M537.68,128.99c7.55,1.06,7.93,12.49.45,14.28l5.53,8.73-2.39-.06-5.58-8.53h-6.14v8.59h-2.15v-22.55l.46-.46c3.05.31,6.87-.42,9.82,0ZM529.55,141.56h7.21c.4,0,2.17-.75,2.62-1.06,2.43-1.69,2.87-5.52,1.05-7.82-.4-.5-2.54-1.85-3.06-1.85h-7.82v10.74Z"/>
    <path d="M451.02,135.43h-2.15c.46-7.03-13.77-6.37-11.82.32,1.47,5.03,15.12,2.52,14.28,11.19-.82,8.36-17.43,7.22-16.56-1.69l1.69.3c.39,7.49,15.53,6.61,12.49-.84-1.58-3.88-12.72-2.93-13.81-8.28-2.08-10.23,15.61-10.51,15.88-1.01Z"/>
    <path d="M497.65,136.35c-2.38.48-2.11-1.07-3.21-2.46-6.74-8.48-20.64-.87-16.35,10.83,2.41,6.57,11.6,8.15,16.04,2.99,1.28-1.49,1.35-3.98,3.83-3.38-1.84,7.84-11.54,10.6-17.94,6.13-5.41-3.77-6.1-13-1.99-17.94,5.43-6.52,17.55-4.77,19.62,3.83Z"/>
    <path d="M505.32,128.99v16.1c0,.13.76,2.18.91,2.47,2.18,4.28,9.21,4.28,11.38,0,.15-.29.91-2.34.91-2.47v-16.1c.83.03,2.03-.33,2.15.77-.43,7.82,2.95,23.92-9.68,22.87-10.76-.9-7.2-15.67-7.81-22.87.12-1.09,1.32-.74,2.15-.77Z"/>
    <path d="M459,139.11h10.28l.46,1.84h-10.28l-.46.46v8.74h11.5l.46,1.84h-13.8v-23.01h13.04c.61,0,.61,1.84,0,1.84h-10.74l-.46.46v7.82Z"/>
    <path d="M585.08,143.25c-.34-1.31-5.29-8.58-6.38-10.49-.25-.43-2.06-3.63-1.9-3.77l2.3.3,7.05,11.96,7.27-12.2,2.08-.06c.05.55-.33.97-.56,1.43-.97,1.87-7.72,12.38-7.72,13.14v8.44h-2.15c-.4-2.36.54-6.65,0-8.74Z"/>
    <path d="M566.67,130.83v21.17h-1.84v-20.71l-.46-.46h-7.52v-1.84h17.33c.61,0,.61,1.84,0,1.84h-7.52Z"/>
    <rect x="550.11" y="128.99" width="1.84" height="23.01"/>
  </g>
  <g>
    <path d="M736.69,129.01c2.3.39,4.88,2.74,5.43,5.03,1.1,4.56-.93,7.88-5.28,9.28l5.85,8.76-2.61-.31-5.85-8.3h-6v8.61h-1.85v-23.07c3.11.37,7.34-.5,10.31,0ZM728.69,130.86l-.46.46v9.85l.46.46h6.77c.43,0,2.61-.88,3.08-1.23,2.58-1.9,2.35-6.79-.36-8.57-.27-.18-1.97-.97-2.1-.97h-7.38Z"/>
    <path d="M700.23,135.48l-1.82-.03c-.14-6.82-13.61-6.71-11.96.43.97,4.22,12.54,3.13,13.94,8.52,2.81,10.8-16.72,11.11-16.47.93l1.81.04c.02,7.03,13.44,7.31,12.98.73-.39-5.55-11.99-3.45-14.11-9.3-3.61-9.96,16.12-11.41,15.63-1.32Z"/>
    <path d="M841.45,135.48l-1.82-.03c-.14-6.82-13.61-6.71-11.96.43.97,4.22,12.54,3.13,13.94,8.52,2.81,10.8-16.72,11.11-16.47.93l1.81.04c.02,7.03,13.44,7.31,12.98.73-.39-5.55-11.99-3.45-14.11-9.3-3.61-9.96,16.12-11.41,15.63-1.32Z"/>
    <path d="M800.83,136.4c-2.89.63-2.33-1.47-3.83-3.09-4.45-4.8-13.92-3.35-16.01,3.09-4.33,13.34,12.26,20.56,18.04,8.05l1.8-.05c-1.78,8.6-13.17,10.98-19.24,4.93-3.38-3.37-4.1-9.2-2.44-13.54,3.78-9.9,18.58-9.5,21.68.61Z"/>
    <path d="M708.84,139.17h10.31l.46,1.85h-10.31l-.46.46v8.77h11.54l.46,1.85h-13.84v-23.07h13.08c.61,0,.61,1.85,0,1.85h-10.77l-.46.46v7.85Z"/>
    <path d="M808.53,139.17h10.31l.46,1.85h-10.31l-.46.46v8.77h11.54l.46,1.85h-13.84v-23.07h13.08c.61,0,.61,1.85,0,1.85h-10.77l-.46.46v7.85Z"/>
    <path d="M748.18,129.06l7.74,19.96,8.03-19.5c.43-.75,1.36-.47,2.12-.49l-9.12,23.03-1.99-.14-8.88-22.44c-.24-.82,1.64-.39,2.1-.41Z"/>
    <rect x="770.68" y="129.01" width="1.85" height="23.07"/>
  </g>
</svg>